<svg preserveAspectRatio="none" width="100%" height="100%" overflow="visible" style="display: block;" viewBox="0 0 16 16" fill="none" xmlns="http://www.w3.org/2000/svg">
<g id="Add Node 1">
<path id="Vector" d="M5 0V1H4V2H5V3H6V2H7V1H6V0H5ZM5 4V5.41992C4.99118 5.4736 4.99118 5.52835 5 5.58203V9.41992C4.99118 9.4736 4.99118 9.52835 5 9.58203V13.5C5.00001 13.6326 5.0527 13.7598 5.14646 13.8535C5.24023 13.9473 5.3674 14 5.5 14H8V14.5C8.00001 14.6326 8.0527 14.7598 8.14646 14.8535C8.24023 14.9473 8.3674 15 8.5 15H10.5C10.6326 15 10.7598 14.9473 10.8535 14.8535C10.9473 14.7598 11 14.6326 11 14.5V12.5C11 12.3674 10.9473 12.2402 10.8535 12.1465C10.7598 12.0527 10.6326 12 10.5 12H8.5C8.3674 12 8.24023 12.0527 8.14646 12.1465C8.0527 12.2402 8.00001 12.3674 8 12.5V13H6V10H8V10.5C8.00001 10.6326 8.0527 10.7598 8.14646 10.8535C8.24023 10.9473 8.3674 11 8.5 11H10.5C10.6326 11 10.7598 10.9473 10.8535 10.8535C10.9473 10.7598 11 10.6326 11 10.5V8.5C11 8.3674 10.9473 8.24023 10.8535 8.14646C10.7598 8.0527 10.6326 8.00001 10.5 8H8.5C8.3674 8.00001 8.24023 8.0527 8.14646 8.14646C8.0527 8.24023 8.00001 8.3674 8 8.5V9H6V6H8V6.5C8.00001 6.6326 8.0527 6.75977 8.14646 6.85354C8.24023 6.9473 8.3674 6.99999 8.5 7H10.5C10.6326 6.99999 10.7598 6.9473 10.8535 6.85354C10.9473 6.75977 11 6.6326 11 6.5V4.5C11 4.3674 10.9473 4.24023 10.8535 4.14646C10.7598 4.0527 10.6326 4.00001 10.5 4H8.5C8.3674 4.00001 8.24023 4.0527 8.14646 4.14646C8.0527 4.24023 8.00001 4.3674 8 4.5V5H6V4H5ZM9 5H10V6H9V5.58008C9.00882 5.5264 9.00882 5.47165 9 5.41797V5ZM9 9H10V10H9V9.58008C9.00882 9.5264 9.00882 9.47165 9 9.41797V9ZM9 13H10V14H9V13Z" fill="var(--fill-0, black)"/>
</g>
</svg>
