<svg preserveAspectRatio="none" width="100%" height="100%" overflow="visible" style="display: block;" viewBox="0 0 16 16" fill="none" xmlns="http://www.w3.org/2000/svg">
<g id="AI_1 1">
<path id="Vector" d="M6 1.95L6.226 2.577C6.764 4.071 7.93 5.236 9.423 5.774L10.05 6L9.423 6.226C7.929 6.764 6.764 7.929 6.226 9.423L6 10.05L5.774 9.423C5.236 7.929 4.071 6.764 2.577 6.226L1.95 6L2.577 5.774C4.071 5.236 5.236 4.07 5.774 2.577L6 1.95ZM6 0.053C5.789 0.053 5.578 0.172 5.492 0.41L4.833 2.238C4.398 3.447 3.446 4.398 2.237 4.834L0.41 5.492C-0.066 5.664 -0.066 6.337 0.41 6.508L2.237 7.166C3.446 7.601 4.397 8.553 4.833 9.762L5.491 11.589C5.578 11.828 5.789 11.947 6 11.947C6.211 11.947 6.422 11.828 6.508 11.59L7.166 9.763C7.601 8.554 8.553 7.603 9.762 7.167L11.589 6.509C12.065 6.337 12.065 5.664 11.589 5.493L9.762 4.833C8.553 4.398 7.602 3.446 7.166 2.237L6.508 0.41C6.422 0.172 6.211 0.053 6 0.053Z" fill="var(--fill-0, #9B51E0)"/>
<path id="Vector_2" d="M12 10.606C12.358 11.165 12.835 11.642 13.394 12C12.835 12.358 12.358 12.835 12 13.394C11.642 12.835 11.165 12.358 10.606 12C11.165 11.642 11.642 11.165 12 10.606ZM12 9.018C11.871 9.018 11.742 9.081 11.667 9.208L11.227 9.954C10.917 10.479 10.48 10.917 9.955 11.226L9.209 11.666C8.955 11.816 8.955 12.183 9.209 12.332L9.955 12.772C10.48 13.082 10.918 13.519 11.227 14.044L11.667 14.79C11.742 14.917 11.871 14.98 12 14.98C12.129 14.98 12.258 14.917 12.333 14.79L12.773 14.044C13.083 13.519 13.52 13.081 14.045 12.772L14.791 12.332C15.045 12.182 15.045 11.815 14.791 11.666L14.045 11.226C13.52 10.916 13.082 10.479 12.773 9.954L12.333 9.208C12.258 9.082 12.129 9.018 12 9.018Z" fill="var(--fill-0, #9B51E0)"/>
</g>
</svg>
