<svg preserveAspectRatio="none" width="100%" height="100%" overflow="visible" style="display: block;" viewBox="0 0 16 16" fill="none" xmlns="http://www.w3.org/2000/svg">
<g id="Bank Building 1">
<path id="Vector" d="M7.50195 1C7.43344 0.999879 7.36563 1.01384 7.30273 1.04102L0.605469 3.91016C0.238877 4.06755 0 4.43174 0 4.83008V5.5C1.32584e-05 5.6326 0.0526959 5.75977 0.146461 5.85354C0.240227 5.9473 0.367396 5.99999 0.5 6H3V5H1V4.83008L7.5 2.04492L14 4.83008V5H12V6H14.5C14.6326 5.99999 14.7598 5.9473 14.8535 5.85354C14.9473 5.75977 15 5.6326 15 5.5V4.83008C15 4.43174 14.7611 4.06755 14.3945 3.91016L7.69727 1.04102C7.63558 1.01436 7.56915 1.00041 7.50195 1ZM7.01172 5V6H6.5C5.67747 6 5 6.67747 5 7.5C5 8.32253 5.67747 9 6.5 9H7.25H7.75H8.5C8.78147 9 9 9.21853 9 9.5C9 9.78147 8.78147 10 8.5 10H6.5H5V11H6.5H7.01172V12H8.01172V11H8.5C9.32253 11 10 10.3225 10 9.5C10 8.67747 9.32253 8 8.5 8H7.75H7.25H6.5C6.21853 8 6 7.78147 6 7.5C6 7.21853 6.21853 7 6.5 7H9V6H8.01172V5H7.01172ZM1 7V13H0V14H15V13H14V7H13V13H2V7H1Z" fill="var(--fill-0, black)"/>
</g>
</svg>
