<svg preserveAspectRatio="none" width="100%" height="100%" overflow="visible" style="display: block;" viewBox="0 0 16 16" fill="none" xmlns="http://www.w3.org/2000/svg">
<g id="Best Seller 1">
<path id="Vector" d="M8.5 1C6.01953 1 4 3.01953 4 5.5C4 6.64844 4.44531 7.6875 5.15625 8.48438L2.28906 13H5.125L6.42188 15.0781L8.5 11.4141L10.5781 15.0781L11.875 13H14.707L11.8438 8.48438C12.5547 7.6875 13 6.64844 13 5.5C13 3.01953 10.9805 1 8.5 1ZM8.5 2C10.4375 2 12 3.5625 12 5.5C12 6.30469 11.7188 7.03516 11.2656 7.625L10.8438 8.04688C10.3945 8.49609 9.78906 8.80859 9.14844 8.9375C8.9375 8.97656 8.72266 9 8.5 9C8.27734 9 8.0625 8.97656 7.85156 8.9375C7.21094 8.80859 6.60547 8.49609 6.15625 8.04688L5.73438 7.625C5.28125 7.03516 5 6.30469 5 5.5C5 3.5625 6.5625 2 8.5 2ZM8 3C8 3.55078 7.64062 4 7 4V5C7.375 5 7.71094 4.89453 8 4.72656V8H9V3H8ZM5.90625 9.16406C6.55859 9.625 7.33203 9.90625 8.17188 9.96875L6.37891 13.125L5.67969 12H4.10938L5.90625 9.16406ZM11.0938 9.16406L12.8906 12H11.3242L10.6211 13.125L8.82812 9.96875C9.66797 9.90625 10.4414 9.625 11.0938 9.16406Z" fill="var(--fill-0, black)"/>
</g>
</svg>
