<svg preserveAspectRatio="none" width="100%" height="100%" overflow="visible" style="display: block;" viewBox="0 0 16 16" fill="none" xmlns="http://www.w3.org/2000/svg">
<g id="Christmas Gift 1">
<path id="Vector" d="M5.5 2.00391C5.11498 2.00402 4.73009 2.14881 4.43945 2.43945C3.85787 3.02104 3.85787 3.97896 4.43945 4.56055C4.64185 4.76294 4.86025 4.86491 5.13672 5H2.5C1.73363 5 1 5.51424 1 6.29297V12.707C1 13.486 1.73472 13.9986 2.5 14H12.5C13.2664 14 14 13.4858 14 12.707V6.29297C14 5.51402 13.2658 5 12.5 5H9.86328C10.1398 4.86491 10.3582 4.76294 10.5605 4.56055C11.1434 3.97921 11.1434 3.02079 10.5605 2.43945C10.2698 2.14866 9.88488 2.00391 9.5 2.00391C9.11512 2.00391 8.73024 2.14866 8.43945 2.43945C8.24457 2.63433 8.12931 2.85137 7.9707 3.13672C7.81604 3.41498 7.652 3.73921 7.5 4.05078C7.348 3.73921 7.18396 3.41498 7.0293 3.13672C6.87069 2.85137 6.75543 2.63433 6.56055 2.43945C6.26973 2.14789 5.88502 2.00379 5.5 2.00391ZM5.5 2.99805C5.62712 2.99803 5.75433 3.04705 5.85352 3.14648C5.85352 3.14648 6.01242 3.36427 6.15625 3.62305C6.30008 3.88182 6.46276 4.20254 6.61328 4.51172C6.62969 4.54542 6.62844 4.54283 6.64453 4.57617C6.59502 4.55587 6.59719 4.56001 6.54688 4.53906C6.22291 4.40417 5.88909 4.25674 5.62109 4.125C5.35309 3.99326 5.12772 3.83475 5.14648 3.85352C4.94807 3.6551 4.94807 3.3449 5.14648 3.14648C5.24584 3.04713 5.37288 2.99807 5.5 2.99805ZM9.5 2.99805C9.62715 2.99805 9.75431 3.04728 9.85352 3.14648C10.0527 3.34515 10.0527 3.65485 9.85352 3.85352C9.87228 3.83475 9.64691 3.99326 9.37891 4.125C9.11091 4.25674 8.77709 4.40417 8.45312 4.53906C8.40281 4.56001 8.40498 4.55587 8.35547 4.57617C8.37156 4.54283 8.37031 4.54542 8.38672 4.51172C8.53724 4.20254 8.69992 3.88182 8.84375 3.62305C8.98758 3.36427 9.14648 3.14648 9.14648 3.14648C9.24569 3.04728 9.37285 2.99805 9.5 2.99805ZM2.5 6H7V9H2V6.29297C2 6.19769 2.16237 6 2.5 6ZM8 6H12.5C12.8382 6 13 6.19591 13 6.29297V9H8V6ZM2 10H7V13H2.5C2.16128 12.9994 2 12.8041 2 12.707V10ZM8 10H13V12.707C13 12.8023 12.8376 13 12.5 13H8V10Z" fill="var(--fill-0, black)"/>
</g>
</svg>
