<svg preserveAspectRatio="none" width="100%" height="100%" overflow="visible" style="display: block;" viewBox="0 0 16 16" fill="none" xmlns="http://www.w3.org/2000/svg">
<g id="Click &#38; Collect 1">
<path id="Vector" d="M8.01172 1.00391C7.58984 1.00391 7.16406 1.17969 6.86719 1.53125C6.86328 1.53516 6.85547 1.54297 6.85156 1.55078L3.5 6H1.5C1.22266 6 1 6.22266 1 6.5V8.5C1 8.77734 1.22266 9 1.5 9H2.08984L2.85156 12.7969C2.98828 13.4922 3.60938 14 4.32031 14H5V13H4.32031C4.07812 13 3.87891 12.8359 3.82812 12.5977L2.99219 8.40234C2.94531 8.16797 2.73828 8 2.5 8H2V7H14V8H13.5C13.2617 8 13.0547 8.16797 13.0117 8.40234L12.1719 12.5977C12.1484 12.6992 12.1055 12.7852 12.0352 12.8555L12.7422 13.5625C12.9453 13.3555 13.0898 13.0937 13.1523 12.7969L13.9102 9H14.5C14.7773 9 15 8.77734 15 8.5V6.5C15 6.22266 14.7773 6 14.5 6H12.5L9.17188 1.55469C9.16797 1.54297 9.16016 1.53516 9.15625 1.53125C8.85938 1.17969 8.43359 1.00391 8.01172 1.00391ZM8.01172 1.99609C8.14844 1.99609 8.28906 2.05469 8.39062 2.17578L11.25 6H4.75391L7.63281 2.17578C7.73437 2.05469 7.875 1.99609 8.01172 1.99609ZM7.05078 9.00781C7.03125 8.99219 7 9.00391 7 9.02734V14L8.21484 13.0117L8.9375 14.7539L9.03906 15L9.78906 14.6992L8.94141 12.707L10.75 12.4883L7.05078 9.00781Z" fill="var(--fill-0, black)"/>
</g>
</svg>
