<svg preserveAspectRatio="none" width="100%" height="100%" overflow="visible" style="display: block;" viewBox="0 0 16 16" fill="none" xmlns="http://www.w3.org/2000/svg">
<g id="Control Panel 1">
<path id="Vector" d="M1.5 2C0.677469 2 0 2.67747 0 3.5V10.5C0 11.3225 0.677469 12 1.5 12H13.5C14.3225 12 15 11.3225 15 10.5V3.5C15 2.67747 14.3225 2 13.5 2H1.5ZM1.5 3H13.5C13.7815 3 14 3.21853 14 3.5V10.5C14 10.7815 13.7815 11 13.5 11H1.5C1.21853 11 1 10.7815 1 10.5V3.5C1 3.21853 1.21853 3 1.5 3ZM5 4C3.34907 4 2 5.34907 2 7C2 8.65093 3.34907 10 5 10C6.65093 10 8 8.65093 8 7C8 5.34907 6.65093 4 5 4ZM5 5V7H7C7 8.11049 6.11049 9 5 9C3.88951 9 3 8.11049 3 7C3 5.88951 3.88951 5 5 5ZM9 5V6H13V5H9ZM9 7V8H13V7H9ZM4 13V14H11V13H4Z" fill="var(--fill-0, black)"/>
</g>
</svg>
