<svg preserveAspectRatio="none" width="100%" height="100%" overflow="visible" style="display: block;" viewBox="0 0 16 16" fill="none" xmlns="http://www.w3.org/2000/svg">
<g id="Customer Support 1">
<path id="Vector" d="M7.5 1C4.13281 1 2 3.52344 2 6.5C2 8.01953 2.57031 9.01563 3.08594 9.78906C3.59766 10.5586 4 11.082 4 11.875V14H5V11.875C5 10.7344 4.40234 9.96875 3.91406 9.23438C3.42969 8.5 3 7.78125 3 6.5C3 4.46094 4.07031 2.79688 6 2.22656V5.28125C5.40625 5.62891 5 6.26562 5 7C5 8.09766 5.90234 9 7 9C7.36719 9 7.71094 8.89062 8.00781 8.71484L9.03516 9.74219C9.01172 9.82813 9 9.91406 9 10C9 10.5508 9.44922 11 10 11C10.5508 11 11 10.5508 11 10C11 9.44922 10.5508 9 10 9C9.91406 9 9.82813 9.01172 9.74219 9.03516L8.71484 8.00781C8.89062 7.71094 9 7.36719 9 7C9 5.90234 8.09766 5 7 5V2.04297C7.16797 2.02734 7.32422 2 7.5 2C8.99609 2 9.96875 2.46484 10.6406 3.15625C11.3164 3.84766 11.6914 4.79688 11.8359 5.78906C11.8594 5.96094 11.9141 6.12891 12 6.28906L12.9883 8.0625C13.0195 8.11328 13.0039 8.15234 12.9492 8.17578L12 8.52734V10.5C12 11.332 11.6562 11.6133 11.2773 11.8008C10.8984 11.9922 10.5 12 10.5 12H10V14H11V12.875C11.2344 12.8477 11.3555 12.8789 11.7227 12.6992C12.3438 12.3867 13 11.668 13 10.5V9.22266L13.3281 9.10156L13.3359 9.09766C13.9219 8.85156 14.1719 8.13281 13.8633 7.57812L12.875 5.80469C12.8516 5.76172 12.832 5.71094 12.8242 5.64844C12.6562 4.5 12.2227 3.33984 11.3594 2.45703C10.4961 1.57422 9.21094 1 7.5 1ZM7 6C7.55859 6 8 6.44141 8 7C8 7.55859 7.55859 8 7 8C6.44141 8 6 7.55859 6 7C6 6.44141 6.44141 6 7 6Z" fill="var(--fill-0, black)"/>
</g>
</svg>
