<svg preserveAspectRatio="none" width="100%" height="100%" overflow="visible" style="display: block;" viewBox="0 0 16 16" fill="none" xmlns="http://www.w3.org/2000/svg">
<g id="Donate 1">
<path id="Vector" d="M10.5 1.06641C10.4492 1.09375 10.0234 1.28516 9.50781 1.48438C8.99609 1.68359 8.35938 1.92578 7.73047 2.16406C7.10156 2.40625 6.47656 2.64453 5.98438 2.84375C5.73438 2.94141 5.52344 3.03125 5.35156 3.10938C5.17969 3.1875 5.09375 3.20703 4.92578 3.35156C4.74609 3.50391 4.61719 3.67578 4.42969 3.92969C4.24219 4.18359 4.03125 4.49609 3.82812 4.8125C3.62109 5.13281 3.42969 5.46094 3.28125 5.75781C3.12891 6.05078 3 6.26172 3 6.61719C3 6.80469 3.02734 6.81641 3.05469 6.91016C3.07812 7.00391 3.11328 7.12109 3.15625 7.25781C3.24219 7.52734 3.36328 7.875 3.50781 8.25C3.77734 8.94531 4.12109 9.72266 4.48438 10.3398C4.19141 10.8086 4 11.3594 4 11.9727C4 13.6289 5.35547 15 7 15C8.64453 15 10 13.6289 10 11.9727C10 11.2383 9.72266 10.543 9.25781 10.0039C9.46484 9.91797 9.61328 9.85156 9.96875 9.69531C10.5312 9.45313 11.207 9.09375 11.8281 8.45312C11.8281 8.44922 11.832 8.44922 11.832 8.44531C12.5039 7.72266 12.7617 6.67969 13.0508 5.74219C13.3398 4.80859 13.6719 4.02344 14.0273 3.79297L13.4727 2.95703C12.6602 3.49219 12.3867 4.5 12.0938 5.44922C11.8008 6.39844 11.5 7.32813 11.1016 7.76172C10.6055 8.27344 10.0703 8.5625 9.57422 8.77734C9.07812 8.99219 8.63281 9.08594 8.24219 9.39844C7.96094 9.61719 7.62891 9.9375 7.26172 10.1992C6.89453 10.457 6.50781 10.6367 6.21875 10.6367C5.95703 10.6367 5.57422 10.3477 5.55469 10.082C5.55078 10.0781 5.55078 10.0781 5.55078 10.0742C5.53125 9.88281 5.60937 9.66406 5.80469 9.41406C6.00391 9.16406 6.3125 8.90234 6.63281 8.68359C7.26953 8.24219 7.94141 7.96094 7.94141 7.96094C8.07422 7.90625 8.17969 7.79687 8.22656 7.65625C8.22656 7.65625 8.34766 7.28906 8.5 6.85547C8.65625 6.42188 8.85156 5.91406 8.94531 5.72266C9.02344 5.56641 9.01563 5.38281 8.92578 5.23828C8.83203 5.08984 8.67188 5 8.5 5H6.625C6.40234 5 6.20703 5.14844 6.14453 5.36328C6.14453 5.36328 5.94531 6.04688 5.25 6.44141C5.03125 6.56641 4.94141 6.83594 5.03906 7.07031C5.03906 7.07031 5.17969 7.41016 5.32812 7.77344C5.40625 7.95703 5.48047 8.14453 5.53906 8.29687C5.54297 8.3125 5.54297 8.30859 5.54688 8.32031C5.36719 8.48047 5.17187 8.60547 5.02344 8.79687C4.97656 8.85156 4.9375 8.91406 4.89844 8.97656C4.73437 8.62109 4.57812 8.24219 4.44531 7.89062C4.30469 7.53125 4.1875 7.19922 4.10938 6.94922C4.06641 6.82422 4.03516 6.71875 4.01562 6.64844C4.01172 6.62891 4.01172 6.61719 4.00781 6.59766C4.01953 6.60938 4.0625 6.42578 4.17188 6.20703C4.29688 5.95703 4.47656 5.65234 4.66797 5.35156C4.85938 5.05078 5.0625 4.75781 5.23438 4.52344C5.40625 4.29297 5.58203 4.10156 5.57031 4.10938C5.49219 4.17969 5.61719 4.08594 5.76562 4.01953C5.91406 3.95312 6.11719 3.86719 6.35938 3.77344C6.83594 3.57812 7.45703 3.33984 8.08594 3.10156C8.71484 2.85937 9.35547 2.62109 9.875 2.41406C10.3945 2.21094 10.7578 2.07422 11 1.93359L10.5 1.06641ZM6.9375 6H7.76562C7.69531 6.18359 7.625 6.33594 7.5625 6.51953C7.4375 6.86328 7.37891 7.04297 7.33594 7.16016C7.20703 7.21875 6.83594 7.41797 6.375 7.6875C6.33203 7.58984 6.29687 7.5 6.25781 7.39844C6.16797 7.17969 6.13672 7.11328 6.08203 6.97656C6.53906 6.58984 6.81641 6.27344 6.9375 6ZM8.41016 10.5625C8.76953 10.9297 9 11.4336 9 11.9727C9 13.0781 8.08203 14 7 14C5.91797 14 5 13.0781 5 11.9727C5 11.7109 5.04687 11.4687 5.13281 11.2461C5.4375 11.4922 5.82812 11.6367 6.21875 11.6367C6.85547 11.6367 7.39453 11.3281 7.83984 11.0156C8.05078 10.8633 8.24219 10.707 8.41016 10.5625Z" fill="var(--fill-0, black)"/>
</g>
</svg>
