<svg preserveAspectRatio="none" width="100%" height="100%" overflow="visible" style="display: block;" viewBox="0 0 16 16" fill="none" xmlns="http://www.w3.org/2000/svg">
<g id="Edit Node 1" clip-path="url(#clip0_9039_2950)">
<path id="Vector" d="M4.5 0C4.3674 1.32584e-05 4.24023 0.0526959 4.14646 0.146461C4.0527 0.240227 4.00001 0.367396 4 0.5V2.5C4.00001 2.6326 4.0527 2.75977 4.14646 2.85354C4.24023 2.9473 4.3674 2.99999 4.5 3H6.5C6.6326 2.99999 6.75977 2.9473 6.85354 2.85354C6.9473 2.75977 6.99999 2.6326 7 2.5V0.5C6.99999 0.367396 6.9473 0.240227 6.85354 0.146461C6.75977 0.0526959 6.6326 1.32584e-05 6.5 0L4.5 0ZM5 1H6V2H5V1ZM5 4V9.41992C4.99118 9.4736 4.99118 9.52835 5 9.58203V13.5C5 13.776 5.224 14 5.5 14H7.4082L7.64648 13H6V10H8V10.5C8 10.776 8.224 11 8.5 11H9.33008L11 9.30273V8.5C11 8.224 10.776 8 10.5 8H8.5C8.224 8 8 8.224 8 8.5V9H6V6H8V6.5C8.00001 6.6326 8.0527 6.75977 8.14646 6.85354C8.24023 6.9473 8.3674 6.99999 8.5 7H10.5C10.6326 6.99999 10.7598 6.9473 10.8535 6.85354C10.9473 6.75977 11 6.6326 11 6.5V4.5C11 4.3674 10.9473 4.24023 10.8535 4.14646C10.7598 4.0527 10.6326 4.00001 10.5 4H8.5C8.3674 4.00001 8.24023 4.0527 8.14646 4.14646C8.0527 4.24023 8.00001 4.3674 8 4.5V5H6V4H5ZM9 5H10V6H9V5ZM14.2031 8.00391C13.8766 8.006 13.5518 8.13105 13.3086 8.38086L8.64453 13.123L7.94922 16.0488L10.875 15.3535L10.9727 15.2559L15.6172 10.6895C16.1168 10.203 16.1218 9.38741 15.6289 8.89453L15.1035 8.36914C14.8571 8.1227 14.5297 8.00181 14.2031 8.00391ZM14.209 8.99609C14.2757 8.99576 14.3429 9.02261 14.3965 9.07617L14.9219 9.60156C15.029 9.70868 15.0283 9.86908 14.9199 9.97461H14.918L10.3711 14.4453L9.29688 14.7012L9.55273 13.627L14.0234 9.08008V9.07812C14.0762 9.02394 14.1423 8.99642 14.209 8.99609ZM9 9H10V10H9V9.58008C9.00882 9.5264 9.00882 9.47165 9 9.41797V9Z" fill="var(--fill-0, black)"/>
</g>
<defs>
<clipPath id="clip0_9039_2950">
<rect width="16" height="16" fill="white"/>
</clipPath>
</defs>
</svg>
