<svg preserveAspectRatio="none" width="100%" height="100%" overflow="visible" style="display: block;" viewBox="0 0 16 16" fill="none" xmlns="http://www.w3.org/2000/svg">
<g id="Group 1">
<path id="Vector" d="M5.5 3C4.12109 3 3 4.12109 3 5.5C3 6.44141 3.53125 7.25781 4.30469 7.67969C2.40625 8.21094 1 9.93359 1 12H10C10 11.3828 9.875 10.793 9.64844 10.2539C10.1094 9.79688 10.7383 9.5 11.4531 9.5C12.8672 9.5 14 10.6172 14 12H15C15 10.4805 14.0039 9.19922 12.6328 8.71484C13.4375 8.29687 14 7.46484 14 6.5C14 5.125 12.875 4 11.5 4C10.125 4 9 5.125 9 6.5C9 7.45312 9.54687 8.27734 10.3398 8.69922C9.89062 8.84766 9.48047 9.07031 9.13281 9.36719C8.54297 8.55469 7.6875 7.95703 6.69531 7.67969C7.46875 7.25781 8 6.44141 8 5.5C8 4.12109 6.87891 3 5.5 3ZM11.5 5C12.3359 5 13 5.66406 13 6.5C13 7.33594 12.3359 8 11.5 8C10.6641 8 10 7.33594 10 6.5C10 5.66406 10.6641 5 11.5 5Z" fill="var(--fill-0, black)"/>
</g>
</svg>
