<svg preserveAspectRatio="none" width="100%" height="100%" overflow="visible" style="display: block;" viewBox="0 0 16 16" fill="none" xmlns="http://www.w3.org/2000/svg">
<g id="Increase 1">
<path id="Vector" d="M9.46484 1L10.8789 2.41406L9 4.29297L8 3.29297L5 6.29297L4 5.29297L1.02344 8.27344L1.72656 8.97656L4 6.70703L5 7.70703L8 4.70703L9 5.70703L11.5859 3.12109L13 4.53516V1H9.46484ZM13 6V14H14V6H13ZM11 7V14H12V7H11ZM9 8V14H10V8H9ZM7 9V14H8V9H7ZM5 10V14H6V10H5ZM3 11V14H4V11H3ZM1 12V14H2V12H1Z" fill="var(--fill-0, black)"/>
</g>
</svg>
