<svg preserveAspectRatio="none" width="100%" height="100%" overflow="visible" style="display: block;" viewBox="0 0 16 16" fill="none" xmlns="http://www.w3.org/2000/svg">
<g id="In Transit 1">
<path id="Vector" d="M0 3V4H8.5C8.78125 4 9 4.21875 9 4.5V12H4.90625C4.69922 11.4219 4.14844 11 3.5 11C2.85156 11 2.30078 11.4219 2.09375 12H1.5C1.21875 12 1 11.7812 1 11.5V11H0V11.5C0 12.3242 0.675781 13 1.5 13H2.09375C2.30078 13.5781 2.85156 14 3.5 14C4.14844 14 4.69922 13.5781 4.90625 13H11.0664C11.2734 13.5781 11.8242 14 12.4727 14C13.1211 14 13.6719 13.5781 13.8789 13H14.5C15.3203 13 16 12.3242 16 11.5V9.80469C16 9.50781 15.9102 9.21484 15.7461 8.96875L14.1875 6.66797C13.9062 6.25 13.4375 6 12.9375 6H10V4.5C10 3.67578 9.32422 3 8.5 3H0ZM0 5V6H7V5H0ZM0 7V8H5V7H0ZM10 7H12.9375C13.1055 7 13.2617 7.08594 13.3555 7.22266V7.22656L14.9141 9.52734C14.9688 9.60937 15 9.70313 15 9.80469V11.5C15 11.7812 14.7812 12 14.5 12H13.8789C13.6719 11.4219 13.1211 11 12.4727 11C11.8242 11 11.2734 11.4219 11.0664 12H10V7ZM0 9V10H3V9H0ZM3.5 12C3.78125 12 4 12.2188 4 12.5C4 12.7812 3.78125 13 3.5 13C3.21875 13 3 12.7812 3 12.5C3 12.2188 3.21875 12 3.5 12ZM12.4727 12C12.7539 12 12.9727 12.2188 12.9727 12.5C12.9727 12.7812 12.7539 13 12.4727 13C12.1914 13 11.9727 12.7812 11.9727 12.5C11.9727 12.2188 12.1914 12 12.4727 12Z" fill="var(--fill-0, black)"/>
</g>
</svg>
