<svg preserveAspectRatio="none" width="100%" height="100%" overflow="visible" style="display: block;" viewBox="0 0 16 16" fill="none" xmlns="http://www.w3.org/2000/svg">
<g id="Laptop Metrics 1">
<path id="Vector" d="M3.5 2C2.67747 2 2 2.67747 2 3.5V10.3652L1.16602 11.8164L1.1582 11.8301C0.668084 12.8088 1.40617 14 2.5 14H13.5C14.5938 14 15.3319 12.8088 14.8418 11.8301L14.834 11.8164L14 10.3652V3.5C14 2.67747 13.3225 2 12.5 2H3.5ZM3.5 3H12.5C12.7815 3 13 3.21853 13 3.5V10H3V3.5C3 3.21853 3.21853 3 3.5 3ZM7 4V9H8V4H7ZM9 5V9H10V5H9ZM5 7V9H6V7H5ZM2.78906 11H13.2109L13.9473 12.2793C14.1212 12.6299 13.8914 13 13.5 13H2.5C2.10861 13 1.87881 12.6299 2.05273 12.2793V12.2773L2.78906 11Z" fill="var(--fill-0, black)"/>
</g>
</svg>
