<svg preserveAspectRatio="none" width="100%" height="100%" overflow="visible" style="display: block;" viewBox="0 0 16 16" fill="none" xmlns="http://www.w3.org/2000/svg">
<g id="Manager 1">
<path id="Vector" d="M8 1C5.79688 1 4 2.79688 4 5C4 6.42969 4.76562 7.67969 5.89844 8.38672C3.625 9.24219 2 11.4336 2 14H3C3 11.5742 4.71484 9.5625 7 9.10156V10L8 11L9 10V9.10156C11.2852 9.5625 13 11.5742 13 14H14C14 11.4336 12.375 9.24219 10.1016 8.38672C11.2344 7.67969 12 6.42969 12 5C12 2.79688 10.2031 1 8 1ZM8 11L7 12V14H9V12L8 11ZM8 2C9.66406 2 11 3.33594 11 5C11 6.66406 9.66406 8 8 8C6.33594 8 5 6.66406 5 5C5 3.33594 6.33594 2 8 2Z" fill="var(--fill-0, black)"/>
</g>
</svg>
