<svg preserveAspectRatio="none" width="100%" height="100%" overflow="visible" style="display: block;" viewBox="0 0 16 16" fill="none" xmlns="http://www.w3.org/2000/svg">
<g id="Networking Manager 1">
<path id="Vector" d="M4 0C3.45312 0 3 0.453125 3 1V5.5C3 5.77734 3.22266 6 3.5 6H11.5C11.7773 6 12 5.77734 12 5.5V1C12 0.453125 11.5469 0 11 0H4ZM4 2H11V5H4V2ZM4.23438 7L2.43359 10H3.60156L5.39844 7H4.23438ZM7 7V10H8V7H7ZM9.60156 7L11.4023 10H12.5664L10.7656 7H9.60156ZM1 11C0.449219 11 0 11.4492 0 12V14C0 14.5508 0.449219 15 1 15H3C3.55078 15 4 14.5508 4 14V12C4 11.4492 3.55078 11 3 11H1ZM6 11C5.44922 11 5 11.4492 5 12V14C5 14.5508 5.44922 15 6 15H9C9.55078 15 10 14.5508 10 14V12C10 11.4492 9.55078 11 9 11H6ZM12 11C11.4492 11 11 11.4492 11 12V14C11 14.5508 11.4492 15 12 15H14C14.5508 15 15 14.5508 15 14V12C15 11.4492 14.5508 11 14 11H12ZM1 12H3V14H1V12ZM6 12H9V14H6V12ZM12 12H14V14H12V12Z" fill="var(--fill-0, black)"/>
</g>
</svg>
