<svg preserveAspectRatio="none" width="100%" height="100%" overflow="visible" style="display: block;" viewBox="0 0 16 16" fill="none" xmlns="http://www.w3.org/2000/svg">
<g id="NFC 1">
<path id="Vector" d="M8 1C6.38281 1 4.95703 1.78516 4.04297 2.98047L4.83203 3.58203C5.5625 2.625 6.70703 2 8 2C9.29297 2 10.4375 2.625 11.1719 3.57812L11.957 2.98047C11.043 1.78516 9.61719 1 8 1ZM8 3C7.02734 3 6.1875 3.48047 5.64062 4.19531L6.42969 4.80078C6.79297 4.32031 7.35156 4 8 4C8.64844 4 9.21094 4.31641 9.57812 4.79688L10.3594 4.19922C9.80859 3.48047 8.97266 3 8 3ZM4 4.83594V12.5C4 13.2852 4.56641 14 5.35938 14H10.6406C11.4336 14 12 13.2852 12 12.5V4.83594L11 5.59766V12.5C11 12.8164 10.7969 13 10.6406 13H5.35938C5.20312 13 5 12.8164 5 12.5V5.59766L4 4.83594ZM8 5C7.67578 5 7.40234 5.16406 7.21875 5.40625L8 6L8.78125 5.40625C8.59766 5.16406 8.32422 5 8 5ZM7 11V12H9V11H7Z" fill="var(--fill-0, black)"/>
</g>
</svg>
