<svg preserveAspectRatio="none" width="100%" height="100%" overflow="visible" style="display: block;" viewBox="0 0 16 16" fill="none" xmlns="http://www.w3.org/2000/svg">
<g id="Original Size 1">
<path id="Vector" d="M2.5 2C1.67578 2 1 2.67578 1 3.5V11.5C1 12.3242 1.67578 13 2.5 13H13.5C14.3242 13 15 12.3242 15 11.5V3.5C15 2.67578 14.3242 2 13.5 2H2.5ZM2.5 3H13.5C13.7812 3 14 3.21875 14 3.5V11.5C14 11.7812 13.7812 12 13.5 12H2.5C2.21875 12 2 11.7812 2 11.5V3.5C2 3.21875 2.21875 3 2.5 3ZM4 5C4 5.5625 3.6875 6 3 6V7C3.37891 7 3.71094 6.89453 4 6.72656V10H5V5H4ZM11 5C11 5.5625 10.6875 6 10 6V7C10.3789 7 10.7109 6.89453 11 6.72656V10H12V5H11ZM6 7V8H9V7H6ZM7 6V9H8V6H7Z" fill="var(--fill-0, black)"/>
</g>
</svg>
