<svg preserveAspectRatio="none" width="100%" height="100%" overflow="visible" style="display: block;" viewBox="0 0 16 16" fill="none" xmlns="http://www.w3.org/2000/svg">
<g id="POS Terminal 1">
<path id="Vector" d="M4.5 1C3.67578 1 3 1.67578 3 2.5V9.5C3 10.1484 3.42188 10.6992 4 10.9062V12.5C4 13.3242 4.67578 14 5.5 14H9.5C10.3242 14 11 13.3242 11 12.5V10.9062C11.5781 10.6992 12 10.1484 12 9.5V2.5C12 1.67578 11.3242 1 10.5 1H4.5ZM4.5 2H10.5C10.7812 2 11 2.21875 11 2.5V9.5C11 9.78125 10.7812 10 10.5 10H4.5C4.21875 10 4 9.78125 4 9.5V2.5C4 2.21875 4.21875 2 4.5 2ZM5 3V5H10V3H5ZM13 3V9H14V3H13ZM5 6V7H6V6H5ZM7 6V7H8V6H7ZM9 6V7H10V6H9ZM5 8V9H6V8H5ZM7 8V9H8V8H7ZM9 8V9H10V8H9ZM5 11H8V13H5.5C5.21875 13 5 12.7812 5 12.5V11ZM9 11H10V12.5C10 12.7812 9.78125 13 9.5 13H9V11Z" fill="var(--fill-0, black)"/>
</g>
</svg>
