<svg preserveAspectRatio="none" width="100%" height="100%" overflow="visible" style="display: block;" viewBox="0 0 16 16" fill="none" xmlns="http://www.w3.org/2000/svg">
<g id="Push Notifications 1">
<path id="Vector" d="M4.5 1C3.67578 1 3 1.67578 3 2.5V12.5C3 13.3242 3.67578 14 4.5 14H10.5C11.3242 14 12 13.3242 12 12.5V9H11V12.5C11 12.7812 10.7812 13 10.5 13H4.5C4.21875 13 4 12.7812 4 12.5V2.5C4 2.21875 4.21875 2 4.5 2H7V1H4.5ZM9 1C8.45312 1 8 1.45312 8 2V6C8 6.54688 8.45312 7 9 7H9.5V8.43359L11.6523 7H14C14.5469 7 15 6.54688 15 6V2C15 1.45312 14.5469 1 14 1H9ZM9 2H14V6H11.3477L10.5 6.56641V6H9V2ZM7 11V12H8V11H7Z" fill="var(--fill-0, black)"/>
</g>
</svg>
