<svg preserveAspectRatio="none" width="100%" height="100%" overflow="visible" style="display: block;" viewBox="0 0 16 16" fill="none" xmlns="http://www.w3.org/2000/svg">
<g id="Qr Code 1">
<path id="Vector" d="M2.5 1C1.67578 1 1 1.67578 1 2.5V4.5C1 5.32422 1.67578 6 2.5 6H3V7H4V6H4.5C5.32422 6 6 5.32422 6 4.5V2.5C6 1.67578 5.32422 1 4.5 1H2.5ZM4 7V8H5V7H4ZM4 8H3V9H4V8ZM3 8V7H2V8H3ZM11.5 1C10.6758 1 10 1.67578 10 2.5V4.5C10 5.32422 10.6758 6 11.5 6H12V7H13V6H13.5C14.3242 6 15 5.32422 15 4.5V2.5C15 1.67578 14.3242 1 13.5 1H11.5ZM13 7V8H14V7H13ZM13 8H12V9H13V8ZM13 9V10H14V9H13ZM13 10H12V11H13V10ZM12 10V9H11V10H12ZM2.5 2H4.5C4.78125 2 5 2.21875 5 2.5V4.5C5 4.78125 4.78125 5 4.5 5H2.5C2.21875 5 2 4.78125 2 4.5V2.5C2 2.21875 2.21875 2 2.5 2ZM8 2V3H7V4H8V5H9V2H8ZM11.5 2H13.5C13.7812 2 14 2.21875 14 2.5V4.5C14 4.78125 13.7812 5 13.5 5H11.5C11.2188 5 11 4.78125 11 4.5V2.5C11 2.21875 11.2188 2 11.5 2ZM3 3V4H4V3H3ZM12 3V4H13V3H12ZM6 6V7H9V8H10V6H6ZM7 8V9H6V10H10V9H8V8H7ZM2.5 10C1.67578 10 1 10.6758 1 11.5V13.5C1 14.3242 1.67578 15 2.5 15H4.5C5.32422 15 6 14.3242 6 13.5V11.5C6 10.6758 5.32422 10 4.5 10H2.5ZM2.5 11H4.5C4.78125 11 5 11.2188 5 11.5V13.5C5 13.7812 4.78125 14 4.5 14H2.5C2.21875 14 2 13.7812 2 13.5V11.5C2 11.2188 2.21875 11 2.5 11ZM7 11V14H8V11H7ZM3 12V13H4V12H3ZM10 12V13H11V12H10ZM11 13V14H12V13H11ZM12 13H13V12H12V13ZM13 13V14H14V13H13Z" fill="var(--fill-0, black)"/>
</g>
</svg>
