<svg preserveAspectRatio="none" width="100%" height="100%" overflow="visible" style="display: block;" viewBox="0 0 16 16" fill="none" xmlns="http://www.w3.org/2000/svg">
<g id="Redeem 1" clip-path="url(#clip0_9018_4301)">
<path id="Vector" d="M0.492188 4C0.21875 4 -0.00390625 4.22266 -0.00390625 4.5L-0.0078125 11.5C-0.00390625 11.7773 0.21875 12 0.492188 12H2V11H0.992188V5H2V4H0.492188ZM14 4V5H14.9961V11H14V12H15.4961C15.7695 12 15.9922 11.7773 15.9961 11.5V4.5C15.9922 4.22266 15.7695 4 15.4961 4H14ZM2 6L3.38672 8L2 10H3.22656L4 8.88281L4.77344 10H6L4.61328 8L6 6H4.77344L4 7.11719L3.22656 6H2ZM6 6L7.38672 8L6 10H7.22656L8 8.88281L8.77344 10H10L8.61328 8L10 6H8.77344L8 7.11719L7.22656 6H6ZM10 6L11.3867 8L10 10H11.2266L12 8.88281L12.7734 10H14L12.6133 8L14 6H12.7734L12 7.11719L11.2266 6H10Z" fill="var(--fill-0, black)"/>
</g>
<defs>
<clipPath id="clip0_9018_4301">
<rect width="16" height="16" fill="white"/>
</clipPath>
</defs>
</svg>
