<svg preserveAspectRatio="none" width="100%" height="100%" overflow="visible" style="display: block;" viewBox="0 0 16 16" fill="none" xmlns="http://www.w3.org/2000/svg">
<g id="Response 1">
<path id="Vector" d="M2.5 2C1.67578 2 1 2.67578 1 3.5V11.5C1 12.3242 1.67578 13 2.5 13H4V15.4336L7.65234 13H12.5C13.3242 13 14 12.3242 14 11.5V3.5C14 2.67578 13.3242 2 12.5 2H2.5ZM2.5 3H12.5C12.7812 3 13 3.21875 13 3.5V11.5C13 11.7812 12.7812 12 12.5 12H7.34766L5 13.5664V12H2.5C2.21875 12 2 11.7812 2 11.5V3.5C2 3.21875 2.21875 3 2.5 3ZM6 5L3.5 7.5L6 10V8H9.5C9.78125 8 10 8.21875 10 8.5V10H11V8.5C11 7.67578 10.3242 7 9.5 7H6V5Z" fill="var(--fill-0, #9B51E0)"/>
</g>
</svg>
