<svg preserveAspectRatio="none" width="100%" height="100%" overflow="visible" style="display: block;" viewBox="0 0 16 16" fill="none" xmlns="http://www.w3.org/2000/svg">
<g id="Restaurant Table 1">
<path id="Vector" d="M4.5 1C3.6775 1 3 1.6775 3 2.5C3 3.3225 3.6775 4 4.5 4C5.3225 4 6 3.3225 6 2.5C6 1.6775 5.3225 1 4.5 1ZM4.5 2C4.78206 2 5 2.21794 5 2.5C5 2.78206 4.78206 3 4.5 3C4.21794 3 4 2.78206 4 2.5C4 2.21794 4.21794 2 4.5 2ZM3.5 4C2.67747 4 2 4.67747 2 5.5V8.5C2 8.88409 2.15134 9.23338 2.39258 9.5C2.15134 9.76662 2 10.1159 2 10.5V14H3V10.5C3 10.2185 3.21853 10 3.5 10H4.60938L4.00977 13.0273C3.99439 13.1039 3.99716 13.183 4.01785 13.2583C4.03854 13.3336 4.07657 13.403 4.12891 13.4609C4.12891 13.4609 4.31941 13.6485 4.60547 13.7715C4.89153 13.8944 5.31417 14 5.90625 14C6.49833 14 6.95472 13.8945 7.26953 13.7832C7.40071 13.7368 7.40012 13.7239 7.48633 13.6797C7.56143 13.7231 7.55474 13.7367 7.6582 13.7773C7.95719 13.8947 8.39766 14 9 14C9.60234 14 10.0428 13.8947 10.3418 13.7773C10.437 13.74 10.4285 13.7279 10.5 13.6875C10.5715 13.7279 10.563 13.74 10.6582 13.7773C10.9572 13.8947 11.3977 14 12 14C12.6023 14 13.0428 13.8947 13.3418 13.7773C13.6408 13.6599 13.8379 13.4941 13.8379 13.4941C13.9022 13.4351 13.95 13.3602 13.9764 13.2769C14.0027 13.1936 14.0069 13.1049 13.9883 13.0195L12.7812 7.39453C12.7572 7.2829 12.6956 7.18288 12.6067 7.1111C12.5179 7.03932 12.4072 7.00012 12.293 7H9V6H6.19922C6.08669 5.89277 5.8137 5.63265 5.42383 5.26172C5.19217 5.04131 4.95952 4.81946 4.78125 4.65039C4.69211 4.56586 4.61559 4.49329 4.56055 4.44141C4.53302 4.41546 4.51121 4.39483 4.49414 4.37891C4.47707 4.36299 4.49724 4.37633 4.44336 4.33203C4.44142 4.33072 4.43946 4.32941 4.4375 4.32812C4.18139 4.12294 3.85233 4 3.5 4ZM3.5 5C3.62008 5 3.72334 5.04024 3.80859 5.10742L3.8125 5.10938V5.11133C3.82718 5.12502 3.84818 5.14464 3.875 5.16992C3.92864 5.22049 4.005 5.29083 4.09375 5.375C4.27126 5.54334 4.50291 5.76611 4.73438 5.98633C5.1973 6.42676 5.6543 6.86133 5.6543 6.86133C5.74737 6.95035 5.87121 7.00002 6 7H5.61328C5.49765 7.00004 5.3856 7.04016 5.29622 7.11351C5.20684 7.18687 5.14564 7.28894 5.12305 7.40234L4.80664 9H3.5C3.21853 9 3 8.78147 3 8.5V5.5C3 5.21853 3.21853 5 3.5 5ZM6.02344 8H11.8887L12.9316 12.8555C12.7497 12.9233 12.4652 13 12 13C11.5123 13 11.2019 12.9178 11.0234 12.8477C11.0008 12.8388 11.0174 12.8433 11 12.8359V11H10V12.8359C9.98256 12.8433 9.99916 12.8388 9.97656 12.8477C9.79805 12.9178 9.48766 13 9 13C8.51234 13 8.20195 12.9178 8.02344 12.8477C8.00084 12.8388 8.01743 12.8433 8 12.8359V10H7V12.8125C6.96538 12.8271 6.98598 12.824 6.93555 12.8418C6.72011 12.918 6.38117 13 5.90625 13C5.46305 13 5.21723 12.9253 5.06055 12.8633L6.02344 8Z" fill="var(--fill-0, black)"/>
</g>
</svg>
