<svg preserveAspectRatio="none" width="100%" height="100%" overflow="visible" style="display: block;" viewBox="0 0 16 16" fill="none" xmlns="http://www.w3.org/2000/svg">
<g id="Send Email 1">
<path id="Vector" d="M1.5 1C0.675781 1 0 1.67578 0 2.5V10.5C0 11.3242 0.675781 12 1.5 12H2V12.5C2 13.3242 2.67578 14 3.5 14H8V13H3.5C3.21875 13 3 12.7812 3 12.5V4.98047L8.5 9.125L14 4.98047V10H15V4.5C15 3.67578 14.3242 3 13.5 3H13V2.5C13 1.67578 12.3242 1 11.5 1H1.5ZM1.5 2H11.5C11.7812 2 12 2.21875 12 2.5V3H3.5C2.67578 3 2 3.67578 2 4.5V11H1.5C1.21875 11 1 10.7812 1 10.5V2.5C1 2.21875 1.21875 2 1.5 2ZM3.5 4H13.5C13.5391 4 13.5742 4.01172 13.6094 4.02344L8.5 7.875L3.39062 4.02344C3.42578 4.01172 3.46094 4 3.5 4ZM13 11V13H9V14H13V16L15.5 13.5L13 11Z" fill="var(--fill-0, black)"/>
</g>
</svg>
