<svg preserveAspectRatio="none" width="100%" height="100%" overflow="visible" style="display: block;" viewBox="0 0 16 16" fill="none" xmlns="http://www.w3.org/2000/svg">
<g id="Smartphone 1">
<path id="Vector" d="M4.5 1C3.67578 1 3 1.67578 3 2.5V12.5C3 13.3242 3.67578 14 4.5 14H10.5C11.3242 14 12 13.3242 12 12.5V2.5C12 1.67578 11.3242 1 10.5 1H4.5ZM4.5 2H10.5C10.7812 2 11 2.21875 11 2.5V12.5C11 12.7812 10.7812 13 10.5 13H4.5C4.21875 13 4 12.7812 4 12.5V2.5C4 2.21875 4.21875 2 4.5 2ZM7 11V12H8V11H7Z" fill="var(--fill-0, black)"/>
</g>
</svg>
