<svg preserveAspectRatio="none" width="100%" height="100%" overflow="visible" style="display: block;" viewBox="0 0 16 16" fill="none" xmlns="http://www.w3.org/2000/svg">
<g id="Sparkling 1">
<path id="Vector" d="M3.5 1C3.29688 1 3.09289 1.10309 3.02539 1.30859L2.60352 2.58008L1.3418 3.00391C1.1378 3.07291 1 3.26642 1 3.48242C1 3.69842 1.1378 3.89194 1.3418 3.96094L2.60547 4.38477L3.02539 5.65625C3.09339 5.86125 3.285 6 3.5 6C3.715 6 3.90661 5.86125 3.97461 5.65625L4.39453 4.38477L5.6582 3.96094C5.8622 3.89194 6 3.69842 6 3.48242C6 3.26642 5.8622 3.07291 5.6582 3.00391L4.39648 2.58008L3.97461 1.30859C3.90661 1.10309 3.70312 1 3.5 1ZM10.4883 3C10.3916 3.00248 10.2977 3.03295 10.2179 3.08772C10.1382 3.14249 10.0761 3.21922 10.0391 3.30859L8.94141 5.94141L6.30859 7.03906C6.21786 7.07723 6.1404 7.14132 6.08594 7.22332C6.03147 7.30532 6.00242 7.40156 6.00242 7.5C6.00242 7.59844 6.03147 7.69468 6.08594 7.77668C6.1404 7.85868 6.21786 7.92277 6.30859 7.96094L8.94141 9.05859L10.0391 11.6914C10.0772 11.7821 10.1413 11.8596 10.2233 11.9141C10.3053 11.9685 10.4016 11.9976 10.5 11.9976C10.5984 11.9976 10.6947 11.9685 10.7767 11.9141C10.8587 11.8596 10.9228 11.7821 10.9609 11.6914L12.0586 9.05859L14.6914 7.96094C14.7821 7.92277 14.8596 7.85868 14.9141 7.77668C14.9685 7.69468 14.9976 7.59844 14.9976 7.5C14.9976 7.40156 14.9685 7.30532 14.9141 7.22332C14.8596 7.14132 14.7821 7.07723 14.6914 7.03906L12.0586 5.94141L10.9609 3.30859C10.9224 3.21554 10.8567 3.13629 10.7723 3.08123C10.688 3.02616 10.589 2.99785 10.4883 3ZM10.5 4.79883L11.2148 6.51562C11.2656 6.63753 11.3625 6.73442 11.4844 6.78516L13.2012 7.5L11.4844 8.21484C11.3625 8.26558 11.2656 8.36247 11.2148 8.48438L10.5 10.2012L9.78516 8.48438C9.73442 8.36247 9.63753 8.26558 9.51562 8.21484L7.79883 7.5L9.51562 6.78516C9.63753 6.73442 9.73442 6.63753 9.78516 6.51562L10.5 4.79883ZM3.5 9C3.29688 9 3.09289 9.10309 3.02539 9.30859L2.60352 10.5801L1.3418 11.0039C1.1388 11.0729 1 11.2664 1 11.4824C1 11.6984 1.1378 11.8919 1.3418 11.9609L2.60547 12.3848L3.02539 13.6562C3.09339 13.8612 3.285 14 3.5 14C3.715 14 3.90661 13.8612 3.97461 13.6562L4.39453 12.3848L5.6582 11.9609C5.8622 11.8919 6 11.6984 6 11.4824C6 11.2664 5.8622 11.0729 5.6582 11.0039L4.39648 10.5801L3.97461 9.30859C3.90661 9.10309 3.70312 9 3.5 9Z" fill="var(--fill-0, black)"/>
</g>
</svg>
