<svg preserveAspectRatio="none" width="100%" height="100%" overflow="visible" style="display: block;" viewBox="0 0 16 16" fill="none" xmlns="http://www.w3.org/2000/svg">
<g id="Speed 1">
<path id="Vector" d="M7.5 1C3.91406 1 1 3.91406 1 7.5C1 9.75781 2.15625 11.75 3.91016 12.918L4.03516 13H10.9648L11.0898 12.918C12.8437 11.75 14 9.75781 14 7.5C14 3.91406 11.0859 1 7.5 1ZM7.5 2C10.543 2 13 4.45703 13 7.5C13 9.375 12.0469 11.0078 10.6133 12H4.38281C2.95312 11.0078 2 9.375 2 7.5C2 4.45703 4.45703 2 7.5 2ZM7.5 3C7.22266 3 7 3.22266 7 3.5C7 3.77734 7.22266 4 7.5 4C7.77734 4 8 3.77734 8 3.5C8 3.22266 7.77734 3 7.5 3ZM10.4883 3.99609C10.3594 4 10.2383 4.05469 10.1445 4.14844L7.14844 7.14844C7.01562 7.27344 6.96484 7.45703 7.00781 7.63281C7.05469 7.80859 7.19141 7.94531 7.36719 7.99219C7.54297 8.03516 7.72656 7.98437 7.85156 7.85156L10.8555 4.85156C11 4.71094 11.043 4.49219 10.9648 4.30078C10.8828 4.11328 10.6953 3.99219 10.4883 3.99609ZM4.5 4C4.22266 4 4 4.22266 4 4.5C4 4.77734 4.22266 5 4.5 5C4.77734 5 5 4.77734 5 4.5C5 4.22266 4.77734 4 4.5 4ZM3.5 7C3.22266 7 3 7.22266 3 7.5C3 7.77734 3.22266 8 3.5 8C3.77734 8 4 7.77734 4 7.5C4 7.22266 3.77734 7 3.5 7ZM11.5 7C11.2227 7 11 7.22266 11 7.5C11 7.77734 11.2227 8 11.5 8C11.7773 8 12 7.77734 12 7.5C12 7.22266 11.7773 7 11.5 7ZM4.5 10C4.22266 10 4 10.2227 4 10.5C4 10.7773 4.22266 11 4.5 11C4.77734 11 5 10.7773 5 10.5C5 10.2227 4.77734 10 4.5 10ZM10.5 10C10.2227 10 10 10.2227 10 10.5C10 10.7773 10.2227 11 10.5 11C10.7773 11 11 10.7773 11 10.5C11 10.2227 10.7773 10 10.5 10Z" fill="var(--fill-0, black)"/>
</g>
</svg>
