<svg preserveAspectRatio="none" width="100%" height="100%" overflow="visible" style="display: block;" viewBox="0 0 16 16" fill="none" xmlns="http://www.w3.org/2000/svg">
<g id="User Groups 1">
<path id="Vector" d="M8 1C6.90234 1 6 1.90234 6 3C6 3.54688 6.22266 4.04687 6.58594 4.41016V4.41406C6.36328 4.55469 6.16797 4.73438 5.99219 4.9375C5.96094 3.86719 5.07812 3 4 3C2.90234 3 2 3.90234 2 5C2 5.53516 2.21875 6.02344 2.5625 6.38281C1.63672 6.89453 1 7.87109 1 9H2C2 7.89062 2.89062 7 4 7C4.45312 7 4.86328 7.14844 5.19922 7.39844L6 8V7C6 5.89062 6.89062 5 8 5C9.10938 5 10 5.89062 10 7V8L10.8008 7.39844C11.1367 7.14844 11.5469 7 12 7C13.1094 7 14 7.89062 14 9H15C15 7.87109 14.3633 6.89453 13.4375 6.38281C13.7812 6.02344 14 5.53516 14 5C14 3.90234 13.0977 3 12 3C10.9219 3 10.0391 3.86719 10.0039 4.9375C9.83203 4.73438 9.63672 4.55078 9.41406 4.41016C9.77734 4.04687 10 3.54688 10 3C10 1.90234 9.09766 1 8 1ZM8 2C8.55859 2 9 2.44141 9 3C9 3.55859 8.55859 4 8 4C7.44141 4 7 3.55859 7 3C7 2.44141 7.44141 2 8 2ZM4 4C4.55859 4 5 4.44141 5 5C5 5.55859 4.55859 6 4 6C3.44141 6 3 5.55859 3 5C3 4.44141 3.44141 4 4 4ZM12 4C12.5586 4 13 4.44141 13 5C13 5.55859 12.5586 6 12 6C11.4414 6 11 5.55859 11 5C11 4.44141 11.4414 4 12 4ZM5 8C3.90234 8 3 8.90234 3 10C3 10.5352 3.21875 11.0234 3.5625 11.3828C2.63672 11.8945 2 12.8711 2 14H3C3 12.8906 3.89062 12 5 12C6.10938 12 7 12.8906 7 14H8C8 12.8711 7.36328 11.8945 6.4375 11.3828C6.78125 11.0234 7 10.5352 7 10C7 8.90234 6.09766 8 5 8ZM8 14H9C9 12.8906 9.89062 12 11 12C12.1094 12 13 12.8906 13 14H14C14 12.8711 13.3633 11.8945 12.4375 11.3828C12.7812 11.0234 13 10.5352 13 10C13 8.90234 12.0977 8 11 8C9.90234 8 9 8.90234 9 10C9 10.5352 9.21875 11.0234 9.5625 11.3828C8.63672 11.8945 8 12.8711 8 14ZM5 9C5.55859 9 6 9.44141 6 10C6 10.5586 5.55859 11 5 11C4.44141 11 4 10.5586 4 10C4 9.44141 4.44141 9 5 9ZM11 9C11.5586 9 12 9.44141 12 10C12 10.5586 11.5586 11 11 11C10.4414 11 10 10.5586 10 10C10 9.44141 10.4414 9 11 9Z" fill="var(--fill-0, black)"/>
</g>
</svg>
