<svg preserveAspectRatio="none" width="100%" height="100%" overflow="visible" style="display: block;" viewBox="0 0 16 16" fill="none" xmlns="http://www.w3.org/2000/svg">
<g id="Voice Id 1">
<path id="Vector" d="M1.5 1C1.3674 1.00001 1.24023 1.0527 1.14646 1.14646C1.0527 1.24023 1.00001 1.3674 1 1.5V4H2V2H4V1H1.5ZM11 1V2H13V4H14V1.5C14 1.3674 13.9473 1.24023 13.8535 1.14646C13.7598 1.0527 13.6326 1.00001 13.5 1H11ZM8 3V12H9V3H8ZM6 4V11H7V4H6ZM4 5V10H5V5H4ZM10 5V10H11V5H10ZM2 6V9H3V6H2ZM12 6V9H13V6H12ZM1 11V13.5C1.00001 13.6326 1.0527 13.7598 1.14646 13.8535C1.24023 13.9473 1.3674 14 1.5 14H4V13H2V11H1ZM13 11V13H11V14H13.5C13.6326 14 13.7598 13.9473 13.8535 13.8535C13.9473 13.7598 14 13.6326 14 13.5V11H13Z" fill="var(--fill-0, #9B51E0)"/>
</g>
</svg>
