<svg preserveAspectRatio="none" width="100%" height="100%" overflow="visible" style="display: block;" viewBox="0 0 16 16" fill="none" xmlns="http://www.w3.org/2000/svg">
<g id="Web Design 1">
<path id="Vector" d="M2.5 2C1.67747 2 1 2.67747 1 3.5V12.5C1 13.3225 1.67747 14 2.5 14H13.5C14.3225 14 15 13.3225 15 12.5V3.5C15 2.67747 14.3225 2 13.5 2H2.5ZM2.5 3H13.5C13.7815 3 14 3.21853 14 3.5V4H2V3.5C2 3.21853 2.21853 3 2.5 3ZM2 5H14V12.5C14 12.7815 13.7815 13 13.5 13H2.5C2.21853 13 2 12.7815 2 12.5V5ZM3.5 7C3.3674 7.00001 3.24023 7.0527 3.14646 7.14646C3.0527 7.24023 3.00001 7.3674 3 7.5V11.5C3.00001 11.6326 3.0527 11.7598 3.14646 11.8535C3.24023 11.9473 3.3674 12 3.5 12H6.5C6.6326 12 6.75977 11.9473 6.85354 11.8535C6.9473 11.7598 6.99999 11.6326 7 11.5V7.5C6.99999 7.3674 6.9473 7.24023 6.85354 7.14646C6.75977 7.0527 6.6326 7.00001 6.5 7H3.5ZM8 7V8H13V7H8ZM4 8H6V11H4V8ZM8 9V10H13V9H8ZM8 11V12H13V11H8Z" fill="var(--fill-0, black)"/>
</g>
</svg>
